<svg xmlns="http://www.w3.org/2000/svg" xmlns:xlink="http://www.w3.org/1999/xlink" width="206.189" height="213.518" viewBox="0 0 206.189 213.518">
  <defs>
    <clipPath id="clip-path">
      <rect id="Rectangle_3" data-name="Rectangle 3" width="206.189" height="213.518" fill="none"/>
    </clipPath>
  </defs>
  <g id="Group_2" data-name="Group 2" clip-path="url(#clip-path)">
    <path id="Path_1" data-name="Path 1" d="M91.554,116.555c-.172,4.1,2.462,5.629,5.871,4.029q4.913-2.307,9.736-4.772a5.52,5.52,0,0,1,5.435,0c3.276,1.683,6.635,3.233,9.937,4.874,1.487.739,3.142,1.018,4.226-.178a5.321,5.321,0,0,0,1.465-3.661,81.657,81.657,0,0,0-1.856-10.275,4.617,4.617,0,0,1,1.679-4.894q3.941-3.529,7.829-7.108c1.252-1.145,2.06-2.41,1.378-4.116-.672-1.678-2.1-2.218-3.909-2.444-3.65-.455-7.278-1.051-10.928-1.505a4.827,4.827,0,0,1-3.973-2.8c-1.464-2.835-2.972-5.652-4.464-8.475-.84-1.589-1.628-3.2-4.037-3.219s-3.241,1.5-4.083,3.131c-1.5,2.9-3.072,5.763-4.588,8.654a4.651,4.651,0,0,1-3.8,2.676c-3.725.468-7.429,1.074-11.154,1.545-1.732.219-3.158.781-3.765,2.334-.628,1.606-.058,2.976,1.276,4.16,2.474,2.2,4.8,4.532,7.379,6.625a5.687,5.687,0,0,1,2.081,6.209c-.7,3.273-1.241,6.574-1.729,9.208m91.275,30.616h-.09a20.424,20.424,0,0,0,.058,3.753c.166.877.657,2.1,1.385,2.391a4.323,4.323,0,0,0,3.15-.358,44.458,44.458,0,0,0,5.575-3.707,5.2,5.2,0,0,1,5.355-.673,51.2,51.2,0,0,0,6.064,1.969c1.043.239,2.659.242,3.284-.318a3.485,3.485,0,0,0,.6-3.018,44.2,44.2,0,0,0-2.171-6.363,3.672,3.672,0,0,1,.754-4.085c1.54-1.828,3.146-3.625,4.477-5.573a3.136,3.136,0,0,0,.412-2.814,3.961,3.961,0,0,0-2.774-1.339c-2.447-.188-4.949.129-7.376-.142a6.429,6.429,0,0,1-3.62-1.729c-1.6-1.67-2.693-3.734-4.229-5.464a4.213,4.213,0,0,0-2.89-1.5,3.857,3.857,0,0,0-2.382,2.1c-.971,2.107-1.4,4.424-2.438,6.5a5.982,5.982,0,0,1-2.925,2.591c-2.3.92-4.823,1.372-7.215,2.121-2.676.838-3.063,2.965-.843,4.587,1.8,1.312,3.628,2.6,5.542,3.758a4.6,4.6,0,0,1,2.479,4.8c-.1.831-.128,1.668-.189,2.5m-141.2,14.721c0,1.974,1.233,2.912,3.253,2.823,2.46-.107,4.921-.192,7.376-.359A4.253,4.253,0,0,1,56.22,166a57.541,57.541,0,0,0,4.345,5.143c.737.742,2.159,1.652,2.94,1.448a4.3,4.3,0,0,0,2.33-2.461c.827-2.079,1.067-4.358,1.972-6.4a6.309,6.309,0,0,1,2.877-2.889c2.159-1.019,4.639-1.472,6.856-2.409.919-.388,2-1.364,2.106-2.166a3.452,3.452,0,0,0-1.526-2.526,57.291,57.291,0,0,0-5.93-3.615,4.351,4.351,0,0,1-2.514-4.151,39.188,39.188,0,0,0-.153-6.261,4.123,4.123,0,0,0-1.9-2.731c-.636-.335-2.153.225-2.981.758a58.62,58.62,0,0,0-5.323,4.007,4.8,4.8,0,0,1-4.683.91c-2.27-.645-4.531-1.368-6.855-1.784a4.133,4.133,0,0,0-3.1.628,3.246,3.246,0,0,0-.346,2.846,49.349,49.349,0,0,0,2.442,6.068,4.17,4.17,0,0,1-.539,4.715c-1.336,1.7-2.578,3.467-3.813,5.231a10.6,10.6,0,0,0-.8,1.531M176.64,3.332C176.664,1,175.094-.436,173.1.119a6,6,0,0,0-3.117,2.415c-8.343,13.068-16.583,26.191-24.841,39.3a11.945,11.945,0,0,0-1,1.867c-.676,1.677.117,2.849,1.751,3.585,1.69.761,3.281.134,4.514-1.816Q163.166,25.281,175.88,5.062a10.08,10.08,0,0,0,.76-1.73M76.089,44.928c-.585-1.211-.875-2-1.319-2.7Q62.285,22.368,49.764,2.529c-1.446-2.293-3.2-3.012-4.973-2.1s-1.958,2.6-.542,4.889c.075.122.157.24.233.361Q54.473,21.542,64.466,37.4c1.79,2.839,3.617,5.659,5.4,8.5A2.98,2.98,0,0,0,73.6,47.166c1-.379,1.677-1.473,2.486-2.238M211.126,57.611c.036-2.733-2.207-3.963-4.31-2.851a10.22,10.22,0,0,0-2.1,1.616q-15.4,14.326-30.761,28.678c-1.66,1.551-3.313,3.117-4.845,4.771-1.064,1.148-.74,2.36.393,3.369a2.81,2.81,0,0,0,3.745.252,8.344,8.344,0,0,0,1.053-.814q17.8-16.587,35.571-33.2a8.133,8.133,0,0,0,1.252-1.819M93.648,206.863a62.914,62.914,0,0,0-3.94-20.9c-1.567-4.134-3.649-8.115-5.631-12.112-.753-1.518-2.085-2.478-4.1-1.6-1.735.759-2.145,2.183-1.232,4.105.213.448.468.879.708,1.316a63.67,63.67,0,0,1,8.125,30.79,4.558,4.558,0,0,0,.544,2.81,4.334,4.334,0,0,0,3.035,1.554,3.762,3.762,0,0,0,2.39-2.23c.414-1.131.1-2.48.1-3.735m38.5-184.693c-.019-4.7-3.893-8.259-8.973-8.241-4.968.018-8.927,3.746-8.892,8.375s4.021,8.257,9.042,8.237c5.039-.021,8.843-3.63,8.824-8.372m39.3,155.814c-5,.026-8.723,3.505-8.738,8.174a8.825,8.825,0,0,0,17.624.067c.027-4.765-3.749-8.268-8.886-8.241M20.861,181.213c-4.112.021-7.1,2.853-7.079,6.713a6.862,6.862,0,0,0,7.175,6.678,6.937,6.937,0,0,0,7.112-6.761c-.012-3.781-3.132-6.651-7.209-6.63m20.413-68.032c-3.978.01-7,2.858-6.984,6.586a6.782,6.782,0,0,0,7.059,6.556,6.825,6.825,0,0,0,7-6.625c-.012-3.7-3.084-6.528-7.075-6.517M13.22,115.74a8.533,8.533,0,0,0,2.193-.849c1.665-1.424,3.3-2.889,4.808-4.448a2.413,2.413,0,0,0-.173-3.748,3.141,3.141,0,0,0-4.325-.165,32.3,32.3,0,0,0-4.7,4.527,3.07,3.07,0,0,0-.185,2.84c.382.791,1.58,1.259,2.383,1.842M204.394,31.035c-.959.1-1.382.028-1.552.182a63.677,63.677,0,0,0-6.058,5.831c-.413.491.357,2.439,1.17,2.945a4.109,4.109,0,0,0,3.5-.105,23.227,23.227,0,0,0,4.817-4.455,3.043,3.043,0,0,0,.192-2.833c-.38-.779-1.588-1.226-2.07-1.563M199.488,193.12a11.271,11.271,0,0,0,2.238-1.1c1.5-1.285,2.938-2.639,4.332-4.021a2.241,2.241,0,0,0-.058-3.543,2.807,2.807,0,0,0-3.9-.345,33.065,33.065,0,0,0-4.884,4.657,2.837,2.837,0,0,0-.092,2.681c.378.722,1.53,1.114,2.368,1.668M44.434,38.808c-.586-.669-1.064-1.728-1.867-2a4.081,4.081,0,0,0-3.108.268,34.413,34.413,0,0,0-4.652,4.274,2.272,2.272,0,0,0,.156,3.554,2.9,2.9,0,0,0,4.1.061c1.571-1.312,3.047-2.725,4.47-4.17a7.131,7.131,0,0,0,.9-1.99m88.108,31.907a3.039,3.039,0,0,0,3.17-2.907,3.191,3.191,0,0,0-3.4-2.748c-1.871.139-2.9,1.11-2.934,2.835a2.816,2.816,0,0,0,3.168,2.82m-25.67,74.96a3.062,3.062,0,0,0,3.055,2.791,3.336,3.336,0,0,0,3.137-2.832,3,3,0,0,0-3.3-2.755c-1.841.046-2.932,1.1-2.888,2.8m34.36-86.627a3.077,3.077,0,0,0-3-3.074,2.94,2.94,0,0,0-2.984,2.655c-.171,1.4,1.429,2.784,3.042,2.752,1.83-.036,2.758-.956,2.942-2.334M65.716,111.707a3.063,3.063,0,0,0,3.028,2.811,3.418,3.418,0,0,0,3.163-2.821,2.98,2.98,0,0,0-3.262-2.8,2.733,2.733,0,0,0-2.929,2.8m21.619-41.09c1.77-.116,2.871-1.032,2.974-2.6.106-1.63-1.082-2.578-2.77-2.833A3.015,3.015,0,0,0,84.365,67.9c.109,1.6,1.166,2.5,2.97,2.722M106.957,134.9c-.005,1.415.774,2.457,2.625,2.651,1.667.174,3.344-1.038,3.314-2.5-.034-1.6-1.1-2.579-2.806-2.827a2.957,2.957,0,0,0-3.133,2.679m41.151-24.546c.062,1.791,1.262,2.573,2.91,2.781a3.106,3.106,0,0,0,3.05-2.616,2.945,2.945,0,0,0-3.1-2.722c-1.851.065-2.745,1.011-2.857,2.558m-87.1-3.681a2.464,2.464,0,0,0,2.52-2.7c-.067-1.675-1.139-2.529-3-2.472-1.9.059-2.888,1.186-2.853,2.7.036,1.565,1.2,2.509,3.333,2.476" transform="translate(-5.686 0)" fill="#8d90b3"/>
    <path id="Path_2" data-name="Path 2" d="M221.35,434.671c-2.248-.937-2.77-2.537-2.757-4.71.095-15.335.045-30.671.059-46.007,0-2.468.836-3.456,2.8-3.585a2.979,2.979,0,0,1,3.365,2.518,8.031,8.031,0,0,1,.075,2.083c0,14.917-.044,29.835.05,44.752.015,2.36-.621,4.057-3.133,4.949Z" transform="translate(-117.493 -221.153)" fill="#3e61aa"/>
    <path id="Path_3" data-name="Path 3" d="M174.9,216.587c.488-2.635,1.03-5.935,1.729-9.208a5.687,5.687,0,0,0-2.081-6.209c-2.574-2.093-4.9-4.429-7.379-6.625-1.334-1.184-1.9-2.554-1.276-4.16.607-1.553,2.033-2.115,3.765-2.334,3.725-.471,7.429-1.077,11.154-1.545a4.652,4.652,0,0,0,3.8-2.676c1.516-2.891,3.09-5.756,4.588-8.654.842-1.629,1.686-3.151,4.083-3.131s3.2,1.63,4.037,3.219c1.492,2.823,3,5.64,4.464,8.475a4.825,4.825,0,0,0,3.973,2.8c3.65.454,7.278,1.05,10.928,1.506,1.805.225,3.237.765,3.909,2.444.683,1.706-.125,2.971-1.377,4.116q-3.9,3.567-7.829,7.108a4.618,4.618,0,0,0-1.68,4.894,81.649,81.649,0,0,1,1.857,10.274,5.321,5.321,0,0,1-1.465,3.661c-1.085,1.2-2.739.918-4.226.178-3.3-1.641-6.661-3.192-9.937-4.874a5.52,5.52,0,0,0-5.435,0q-4.82,2.463-9.736,4.772c-3.409,1.6-6.043.07-5.871-4.029" transform="translate(-89.029 -100.033)" fill="#ffc51a"/>
    <path id="Path_4" data-name="Path 4" d="M372.228,311.357c.061-.834.093-1.671.189-2.5a4.6,4.6,0,0,0-2.479-4.8c-1.914-1.162-3.746-2.446-5.542-3.758-2.22-1.622-1.833-3.749.843-4.587,2.392-.749,4.915-1.2,7.215-2.121a5.98,5.98,0,0,0,2.925-2.591c1.037-2.072,1.467-4.389,2.438-6.5a3.859,3.859,0,0,1,2.382-2.1,4.215,4.215,0,0,1,2.89,1.5c1.536,1.73,2.627,3.794,4.229,5.464a6.43,6.43,0,0,0,3.62,1.729c2.427.271,4.929-.046,7.376.142a3.963,3.963,0,0,1,2.774,1.339,3.136,3.136,0,0,1-.412,2.814c-1.331,1.948-2.938,3.745-4.477,5.573a3.672,3.672,0,0,0-.754,4.085,44.2,44.2,0,0,1,2.171,6.363,3.484,3.484,0,0,1-.6,3.017c-.625.56-2.241.558-3.284.318a51.2,51.2,0,0,1-6.064-1.969,5.2,5.2,0,0,0-5.355.673,44.515,44.515,0,0,1-5.575,3.707,4.325,4.325,0,0,1-3.15.358c-.728-.293-1.219-1.514-1.385-2.391a20.422,20.422,0,0,1-.058-3.753h.09" transform="translate(-195.085 -164.187)" fill="#ffc51a"/>
    <path id="Path_5" data-name="Path 5" d="M77.72,352.032a10.564,10.564,0,0,1,.8-1.531c1.234-1.765,2.476-3.529,3.812-5.231a4.17,4.17,0,0,0,.539-4.715,49.379,49.379,0,0,1-2.442-6.068,3.248,3.248,0,0,1,.346-2.846,4.133,4.133,0,0,1,3.1-.628c2.325.416,4.584,1.139,6.855,1.784a4.8,4.8,0,0,0,4.684-.91,58.47,58.47,0,0,1,5.322-4.007c.828-.534,2.345-1.094,2.981-.758a4.121,4.121,0,0,1,1.9,2.73,39.19,39.19,0,0,1,.153,6.261,4.351,4.351,0,0,0,2.514,4.152,57.3,57.3,0,0,1,5.93,3.615,3.45,3.45,0,0,1,1.526,2.526c-.1.8-1.187,1.778-2.106,2.167-2.217.938-4.7,1.39-6.856,2.409a6.309,6.309,0,0,0-2.877,2.889c-.9,2.043-1.144,4.322-1.972,6.4a4.3,4.3,0,0,1-2.33,2.461c-.781.2-2.2-.706-2.94-1.448a57.6,57.6,0,0,1-4.345-5.142A4.252,4.252,0,0,0,88.35,354.5c-2.455.167-4.917.252-7.376.359-2.021.088-3.255-.85-3.253-2.823" transform="translate(-41.774 -190.14)" fill="#ffc51a"/>
    <path id="Path_6" data-name="Path 6" d="M331.57,3.332a10.093,10.093,0,0,1-.76,1.73Q318.093,25.28,305.328,45.473c-1.233,1.95-2.824,2.576-4.514,1.816-1.634-.735-2.427-1.907-1.751-3.585a11.963,11.963,0,0,1,1-1.867c8.258-13.113,16.5-26.235,24.84-39.3A6.007,6.007,0,0,1,328.025.119c2-.555,3.569.885,3.545,3.213" transform="translate(-160.616 0)" fill="#69b877"/>
    <path id="Path_7" data-name="Path 7" d="M114.128,44.994c-.809.764-1.483,1.859-2.486,2.238a2.98,2.98,0,0,1-3.732-1.268c-1.788-2.84-3.614-5.66-5.4-8.5q-10-15.854-19.984-31.715c-.076-.121-.158-.239-.233-.361C80.872,3.1,81.059,1.414,82.83.5S86.357.3,87.8,2.6q12.515,19.842,25.006,39.7c.444.706.734,1.491,1.319,2.7" transform="translate(-43.724 -0.066)" fill="#3e61aa"/>
    <path id="Path_8" data-name="Path 8" d="M394.611,133.112a8.122,8.122,0,0,1-1.253,1.819q-17.752,16.629-35.57,33.2a8.42,8.42,0,0,1-1.054.814,2.809,2.809,0,0,1-3.744-.252c-1.134-1.009-1.457-2.22-.394-3.369,1.532-1.654,3.185-3.22,4.846-4.771Q372.8,146.2,388.2,131.877a10.189,10.189,0,0,1,2.1-1.615c2.1-1.113,4.346.117,4.31,2.85" transform="translate(-189.171 -75.501)" fill="#ffc51a"/>
    <path id="Path_9" data-name="Path 9" d="M172.322,445.675c0,1.255.315,2.6-.1,3.736a3.761,3.761,0,0,1-2.39,2.23,4.336,4.336,0,0,1-3.035-1.554,4.557,4.557,0,0,1-.544-2.809,63.673,63.673,0,0,0-8.124-30.79c-.241-.437-.5-.868-.709-1.316-.913-1.922-.5-3.346,1.232-4.105,2.013-.88,3.345.08,4.1,1.6,1.981,4,4.064,7.977,5.631,12.112a62.915,62.915,0,0,1,3.939,20.9" transform="translate(-84.36 -238.812)" fill="#ffc51a"/>
    <path id="Path_10" data-name="Path 10" d="M252.661,41.52c.019,4.742-3.785,8.351-8.824,8.372-5.021.021-9.007-3.61-9.041-8.237s3.923-8.358,8.892-8.375c5.08-.018,8.954,3.54,8.973,8.241" transform="translate(-126.202 -19.349)" fill="#ffc51a"/>
    <path id="Path_11" data-name="Path 11" d="M348.235,425.223c5.137-.026,8.913,3.476,8.887,8.241A8.825,8.825,0,0,1,339.5,433.4c.014-4.669,3.734-8.149,8.738-8.174" transform="translate(-182.479 -247.239)" fill="#3e61aa"/>
    <path id="Path_12" data-name="Path 12" d="M24.586,432.938c4.077-.021,7.2,2.848,7.209,6.63a6.937,6.937,0,0,1-7.112,6.761,6.863,6.863,0,0,1-7.175-6.679c-.019-3.86,2.966-6.691,7.079-6.712" transform="translate(-9.41 -251.725)" fill="#69b877"/>
    <path id="Path_13" data-name="Path 13" d="M182.068,28.333c4.077-.021,7.2,2.848,7.209,6.63a6.937,6.937,0,0,1-7.112,6.761,6.863,6.863,0,0,1-7.175-6.679c-.019-3.86,2.966-6.691,7.079-6.712" transform="translate(-94.056 -16.474)" fill="#e83850"/>
    <path id="Path_14" data-name="Path 14" d="M68.832,270.4c3.991-.01,7.063,2.82,7.075,6.517a7.044,7.044,0,0,1-14.059.069c-.012-3.729,3.006-6.576,6.984-6.586" transform="translate(-33.243 -157.22)" fill="#3e61aa"/>
    <path id="Path_15" data-name="Path 15" d="M13.22,262.632c-.8-.583-2-1.051-2.383-1.842a3.07,3.07,0,0,1,.185-2.84,32.322,32.322,0,0,1,4.7-4.527,3.14,3.14,0,0,1,4.325.165,2.412,2.412,0,0,1,.173,3.747c-1.508,1.56-3.143,3.024-4.808,4.449a8.518,8.518,0,0,1-2.193.848" transform="translate(-5.686 -146.893)" fill="#69b877"/>
    <path id="Path_16" data-name="Path 16" d="M199,115.97c-.8-.583-2-1.051-2.383-1.842a3.07,3.07,0,0,1,.185-2.84,32.321,32.321,0,0,1,4.7-4.527,3.14,3.14,0,0,1,4.325.165,2.412,2.412,0,0,1,.173,3.747c-1.508,1.56-3.143,3.024-4.808,4.449a8.519,8.519,0,0,1-2.193.848" transform="translate(-105.542 -61.618)" fill="#e83850"/>
    <path id="Path_17" data-name="Path 17" d="M148.288,23.207c-.8-.583-2-1.051-2.383-1.842a3.07,3.07,0,0,1,.185-2.84,32.322,32.322,0,0,1,4.7-4.527,3.14,3.14,0,0,1,4.325.165,2.412,2.412,0,0,1,.173,3.747c-1.508,1.56-3.143,3.024-4.808,4.449a8.52,8.52,0,0,1-2.193.848" transform="translate(-78.284 -7.683)" fill="#e83850"/>
    <path id="Path_18" data-name="Path 18" d="M94.888,466.228c-.8-.583-2-1.051-2.383-1.842a3.07,3.07,0,0,1,.185-2.84,32.318,32.318,0,0,1,4.7-4.527,3.14,3.14,0,0,1,4.325.165,2.412,2.412,0,0,1,.173,3.747c-1.508,1.56-3.143,3.024-4.808,4.448a8.519,8.519,0,0,1-2.193.848" transform="translate(-49.582 -265.27)" fill="#e83850"/>
    <path id="Path_19" data-name="Path 19" d="M282.643,452.832c-1-.208-2.307-.157-3.032-.718a3.2,3.2,0,0,1-1.2-2.629,28.708,28.708,0,0,1,2.052-5.928A3.03,3.03,0,0,1,284.434,442c1.628.525,2.432,1.75,1.961,3.3a61.629,61.629,0,0,1-2.186,5.9c-.222.528-.858.913-1.566,1.629" transform="translate(-149.63 -256.871)" fill="#e83850"/>
    <path id="Path_20" data-name="Path 20" d="M420.661,74.145c.481.338,1.69.785,2.069,1.563a3.042,3.042,0,0,1-.192,2.834A23.218,23.218,0,0,1,417.721,83a4.108,4.108,0,0,1-3.5.105c-.813-.506-1.582-2.454-1.17-2.945a63.737,63.737,0,0,1,6.058-5.831c.169-.154.592-.08,1.552-.182" transform="translate(-221.952 -43.11)" fill="#3e61aa"/>
    <path id="Path_21" data-name="Path 21" d="M415.941,447.991c-.839-.554-1.99-.945-2.368-1.668a2.836,2.836,0,0,1,.092-2.681,33.088,33.088,0,0,1,4.884-4.657,2.807,2.807,0,0,1,3.9.345,2.24,2.24,0,0,1,.058,3.543c-1.394,1.383-2.83,2.736-4.332,4.021a11.252,11.252,0,0,1-2.237,1.1" transform="translate(-222.138 -254.871)" fill="#ffc51a"/>
    <path id="Path_22" data-name="Path 22" d="M71.683,89.687a7.132,7.132,0,0,1-.9,1.99c-1.423,1.445-2.9,2.858-4.471,4.17a2.9,2.9,0,0,1-4.1-.061,2.273,2.273,0,0,1-.156-3.554,34.46,34.46,0,0,1,4.651-4.274,4.083,4.083,0,0,1,3.109-.268c.8.27,1.281,1.328,1.866,2" transform="translate(-32.935 -50.879)" fill="#fd9600"/>
    <path id="Path_23" data-name="Path 23" d="M270.6,161.078a2.816,2.816,0,0,1-3.168-2.82c.03-1.725,1.063-2.7,2.934-2.836a3.192,3.192,0,0,1,3.4,2.749,3.039,3.039,0,0,1-3.17,2.907" transform="translate(-143.744 -90.363)" fill="#69b877"/>
    <path id="Path_24" data-name="Path 24" d="M218.778,344.147c-.044-1.694,1.048-2.75,2.888-2.8a3,3,0,0,1,3.3,2.755,3.336,3.336,0,0,1-3.136,2.832,3.062,3.062,0,0,1-3.056-2.791" transform="translate(-117.592 -198.472)" fill="#3e61aa"/>
    <path id="Path_25" data-name="Path 25" d="M271.689,482.908c-.044-1.694,1.048-2.75,2.888-2.8a3,3,0,0,1,3.3,2.755,3.335,3.335,0,0,1-3.136,2.832,3.061,3.061,0,0,1-3.056-2.791" transform="translate(-146.031 -279.152)" fill="#3e61aa"/>
    <path id="Path_26" data-name="Path 26" d="M286.1,136.794c-.184,1.378-1.112,2.3-2.942,2.334-1.614.031-3.214-1.354-3.043-2.752a2.941,2.941,0,0,1,2.984-2.655,3.077,3.077,0,0,1,3,3.074" transform="translate(-150.555 -77.746)" fill="#ffc51a"/>
    <path id="Path_27" data-name="Path 27" d="M129.794,262.982a2.733,2.733,0,0,1,2.929-2.8,2.98,2.98,0,0,1,3.262,2.8,3.418,3.418,0,0,1-3.163,2.821,3.063,3.063,0,0,1-3.028-2.811" transform="translate(-69.764 -151.275)" fill="#3e61aa"/>
    <path id="Path_28" data-name="Path 28" d="M173.082,161.131c-1.8-.226-2.861-1.118-2.97-2.722a3.015,3.015,0,0,1,3.174-2.714c1.688.255,2.876,1.2,2.77,2.833-.1,1.571-1.2,2.487-2.974,2.6" transform="translate(-91.433 -90.513)" fill="#ffc51a"/>
    <path id="Path_29" data-name="Path 29" d="M218.964,318.547a2.957,2.957,0,0,1,3.133-2.68c1.711.249,2.773,1.231,2.806,2.828.031,1.465-1.646,2.677-3.313,2.5-1.851-.193-2.631-1.236-2.625-2.651" transform="translate(-117.692 -183.643)" fill="#ffc51a"/>
    <path id="Path_30" data-name="Path 30" d="M307.939,260.1c.112-1.547,1.006-2.493,2.857-2.558a2.947,2.947,0,0,1,3.1,2.723,3.106,3.106,0,0,1-3.05,2.616c-1.648-.207-2.848-.989-2.91-2.78" transform="translate(-165.516 -149.743)" fill="#ffc51a"/>
    <path id="Path_31" data-name="Path 31" d="M324.944,238.656c.112-1.547,1.006-2.493,2.857-2.558a2.947,2.947,0,0,1,3.1,2.723,3.106,3.106,0,0,1-3.05,2.616c-1.648-.207-2.848-.989-2.91-2.78" transform="translate(-174.656 -137.274)" fill="#8d90b3"/>
    <path id="Path_32" data-name="Path 32" d="M115.746,247.669c-2.134.033-3.3-.911-3.333-2.476-.035-1.514.956-2.641,2.853-2.7,1.861-.058,2.933.8,3,2.472a2.464,2.464,0,0,1-2.52,2.7" transform="translate(-60.421 -140.993)" fill="#8d90b3"/>
    <path id="Path_33" data-name="Path 33" d="M294.661,376.676c-.522,1.163-1.376,2.305-1.463,3.494a3.4,3.4,0,0,0,1.286,2.88,4.6,4.6,0,0,0,3.459-.4,4.933,4.933,0,0,0,1.673-2.418,69.552,69.552,0,0,1,20.339-25.754c.4-.323.82-.636,1.2-.978,1.646-1.47,1.859-2.928.567-4.223-1.5-1.5-3.133-1.067-4.462.084-3.5,3.027-7.084,6-10.256,9.3a68.1,68.1,0,0,0-12.346,18.018" transform="translate(-157.59 -202.52)" fill="#e83850"/>
    <path id="Path_34" data-name="Path 34" d="M0,124.56a8.1,8.1,0,0,0,1.252,1.82q17.752,16.629,35.57,33.2a8.383,8.383,0,0,0,1.054.814,2.81,2.81,0,0,0,3.745-.252c1.134-1.009,1.457-2.22.394-3.369-1.532-1.654-3.184-3.22-4.845-4.771Q21.808,137.648,6.409,123.325a10.189,10.189,0,0,0-2.1-1.615c-2.1-1.113-4.346.117-4.31,2.85" transform="translate(0 -70.529)" fill="#e83850"/>
  </g>
</svg>
